<svg xml:space="preserve" width="19" height="20" viewBox="0 0 19 20" xmlns="http://www.w3.org/2000/svg">
<path d="M4.49772 12.1374L3.13104 18.0554C3.08872 18.2346 3.10143 18.4224 3.1675 18.5943C3.23357 18.7662 3.34993 18.9141 3.50139 19.0188C3.65285 19.1235 3.83237 19.1801 4.0165 19.1812C4.20062 19.1823 4.3808 19.1278 4.53349 19.0249L9.52783 15.6954L14.5222 19.0249C14.6784 19.1287 14.8627 19.1821 15.0502 19.178C15.2377 19.1739 15.4194 19.1124 15.5709 19.0019C15.7225 18.8915 15.8365 18.7372 15.8978 18.56C15.9591 18.3827 15.9646 18.191 15.9136 18.0105L14.236 12.1402L18.3966 8.39603C18.5298 8.27605 18.625 8.11963 18.6703 7.94614C18.7156 7.77264 18.709 7.58967 18.6515 7.41986C18.5939 7.25004 18.4878 7.10083 18.3463 6.99067C18.2048 6.88051 18.0342 6.81423 17.8554 6.80004L12.6263 6.38362L10.3634 1.3746C10.2913 1.21331 10.174 1.07635 10.0257 0.980249C9.87744 0.884145 9.70453 0.833008 9.52783 0.833008C9.35114 0.833008 9.17822 0.884145 9.02995 0.980249C8.88168 1.07635 8.76439 1.21331 8.69223 1.3746L6.42942 6.38362L1.20027 6.79913C1.02457 6.81305 0.856613 6.87729 0.716475 6.98416C0.576337 7.09104 0.469957 7.23602 0.410062 7.40178C0.350167 7.56753 0.339292 7.74703 0.37874 7.9188C0.418188 8.09057 0.506287 8.24734 0.632498 8.37035L4.49772 12.1374V12.1374ZM7.11459 8.16947C7.27831 8.15658 7.43555 8.09987 7.56982 8.0053C7.70408 7.91073 7.81044 7.78179 7.87773 7.63198L9.52783 3.98047L11.1779 7.63198C11.2452 7.78179 11.3516 7.91073 11.4858 8.0053C11.6201 8.09987 11.7774 8.15658 11.9411 8.16947L15.5843 8.4584L12.5841 11.1587C12.3236 11.3936 12.2199 11.7549 12.3153 12.0925L13.4646 16.1146L10.0378 13.8297C9.88741 13.7288 9.71036 13.6749 9.52921 13.6749C9.34806 13.6749 9.17101 13.7288 9.0206 13.8297L5.43972 16.2173L6.40282 12.0475C6.43813 11.8942 6.43339 11.7343 6.38906 11.5833C6.34472 11.4323 6.26228 11.2953 6.14966 11.1853L3.3631 8.46849L7.11459 8.16947V8.16947Z" fill="currentColor" stroke="currentColor" />
</svg>
