<svg xml:space="preserve" width="26" height="26" viewBox="0 0 26 26"  xmlns="http://www.w3.org/2000/svg">
<path d="M13.1962 25.2905C12.4886 25.2926 11.8096 25.0112 11.3108 24.5092L0.861512 14.0625C0.310142 13.513 0.0274764 12.7493 0.088179 11.9732L0.754846 3.21852C0.850071 1.90076 1.90073 0.85408 3.21885 0.763857L11.9735 0.09719C12.0428 0.0825214 12.1108 0.0825214 12.1802 0.0825214C12.8864 0.0816757 13.5637 0.36296 14.0615 0.863857L24.5108 11.3092C25.0112 11.8093 25.2923 12.4878 25.2923 13.1952C25.2923 13.9026 25.0112 14.5811 24.5108 15.0812L15.0815 24.5092C14.5826 25.0109 13.9037 25.2923 13.1962 25.2905ZM7.53885 4.87186C6.33194 4.8722 5.27573 5.68311 4.96364 6.84896C4.65155 8.01482 5.1614 9.24494 6.20673 9.84818C7.25206 10.4514 8.57223 10.2774 9.42551 9.42386L9.43485 9.41586L9.44418 9.40652L9.43351 9.41586C10.1914 8.65127 10.4152 7.50593 10.0009 6.51227C9.58661 5.5186 8.61543 4.87153 7.53885 4.87186Z"  fill="currentColor" stroke="currentColor" />
</svg>
